<svg xmlns="http://www.w3.org/2000/svg" xmlns:xlink="http://www.w3.org/1999/xlink" id="Layer_1" x="0px" y="0px" viewBox="0 0 645.6 259.64" style="enable-background:new 0 0 645.6 259.64;" xml:space="preserve"><style type="text/css">	.st0{fill:#FFFFFF;}</style><g>	<g>		<path class="st0" d="M138.8,251.58h-7.76v-20.81h7.47c4.39,0,6.6,2.39,6.6,5.29c0,2.63-1.64,4.15-3.64,4.81   c2.27,0.39,4.12,2.57,4.12,5.14C145.58,249.13,143.1,251.58,138.8,251.58z M138.26,233h-4.51v6.75h4.57c2.54,0,4-1.25,4-3.37   C142.33,234.32,140.92,233,138.26,233z M138.47,241.99h-4.72v7.35h4.81c2.69,0,4.3-1.34,4.3-3.61   C142.86,243.42,141.13,241.99,138.47,241.99z"></path>		<path class="st0" d="M152.06,251.58h-2.72v-16.36h2.72v2.66c0.93-1.82,2.69-2.96,5.29-2.96v2.81h-0.72c-2.6,0-4.57,1.16-4.57,4.96   V251.58z"></path>		<path class="st0" d="M160.03,230.7c0-1.04,0.81-1.85,1.85-1.85c0.99,0,1.79,0.81,1.79,1.85s-0.81,1.85-1.79,1.85   C160.84,232.55,160.03,231.75,160.03,230.7z M160.48,235.21h2.72v16.36h-2.72V235.21z"></path>		<path class="st0" d="M179.8,242.32c0-3.34-1.82-5.05-4.57-5.05c-2.78,0-4.69,1.73-4.69,5.26v9.05h-2.72v-16.36h2.72v2.33   c1.08-1.7,3.05-2.63,5.26-2.63c3.79,0,6.69,2.33,6.69,7.02v9.65h-2.69V242.32z"></path>		<path class="st0" d="M193.69,234.94c2.99,0,5.14,1.49,6.09,3.25v-2.99h2.75v16.72c0,4.51-3.02,7.7-7.82,7.7   c-4.3,0-7.38-2.18-7.91-5.67h2.69c0.6,1.97,2.54,3.31,5.23,3.31c2.9,0,5.08-1.85,5.08-5.34v-3.43c-0.99,1.76-3.11,3.34-6.09,3.34   c-4.39,0-7.76-3.43-7.76-8.51C185.93,238.23,189.3,234.94,193.69,234.94z M194.23,237.3c-2.99,0-5.52,2.18-5.52,6.03   c0,3.85,2.54,6.12,5.52,6.12c2.99,0,5.55-2.24,5.55-6.09C199.78,239.57,197.21,237.3,194.23,237.3z"></path>		<path class="st0" d="M206.68,230.7c0-1.04,0.81-1.85,1.85-1.85c0.99,0,1.79,0.81,1.79,1.85s-0.81,1.85-1.79,1.85   C207.49,232.55,206.68,231.75,206.68,230.7z M207.13,235.21h2.72v16.36h-2.72V235.21z"></path>		<path class="st0" d="M226.45,242.32c0-3.34-1.82-5.05-4.57-5.05c-2.78,0-4.69,1.73-4.69,5.26v9.05h-2.72v-16.36h2.72v2.33   c1.08-1.7,3.05-2.63,5.26-2.63c3.79,0,6.69,2.33,6.69,7.02v9.65h-2.69V242.32z"></path>		<path class="st0" d="M240.33,234.94c2.99,0,5.14,1.49,6.09,3.25v-2.99h2.75v16.72c0,4.51-3.02,7.7-7.82,7.7   c-4.3,0-7.38-2.18-7.91-5.67h2.69c0.6,1.97,2.54,3.31,5.23,3.31c2.9,0,5.08-1.85,5.08-5.34v-3.43c-0.99,1.76-3.11,3.34-6.09,3.34   c-4.39,0-7.76-3.43-7.76-8.51C232.57,238.23,235.95,234.94,240.33,234.94z M240.87,237.3c-2.99,0-5.52,2.18-5.52,6.03   c0,3.85,2.54,6.12,5.52,6.12c2.99,0,5.55-2.24,5.55-6.09C246.43,239.57,243.86,237.3,240.87,237.3z"></path>		<path class="st0" d="M262.34,237.45h-2.12v-2.24h2.12v-4.12h2.72v4.12h4.27v2.24h-4.27v9.64c0,1.61,0.6,2.18,2.27,2.18h2v2.3   h-2.45c-2.9,0-4.54-1.19-4.54-4.48V237.45z"></path>		<path class="st0" d="M272.62,229.48h2.72v8.09c1.08-1.73,3.11-2.66,5.41-2.66c3.64,0,6.54,2.33,6.54,7.02v9.65h-2.69v-9.26   c0-3.34-1.82-5.05-4.57-5.05c-2.78,0-4.69,1.73-4.69,5.26v9.05h-2.72V229.48z"></path>		<path class="st0" d="M298.81,251.84c-4.66,0-8.09-3.28-8.09-8.48c0-5.17,3.31-8.42,8.09-8.42c4.75,0,7.85,3.34,7.85,7.82   c0,0.6-0.03,1.08-0.09,1.64h-13.08c0.21,3.31,2.54,5.14,5.32,5.14c2.45,0,4-1.25,4.6-3.02h2.93   C305.5,249.52,302.87,251.84,298.81,251.84z M293.52,242.2h10.33c0.03-3.19-2.36-4.96-5.17-4.96   C296.03,237.24,293.82,239,293.52,242.2z"></path>		<path class="st0" d="M324.97,234.94c3.05,0,5.14,1.55,6.09,3.25v-2.99h2.75v16.36h-2.75v-3.05c-0.99,1.76-3.11,3.31-6.12,3.31   c-4.36,0-7.73-3.43-7.73-8.51C317.2,238.23,320.58,234.94,324.97,234.94z M325.51,237.3c-2.99,0-5.52,2.18-5.52,6.03   c0,3.85,2.54,6.12,5.52,6.12c2.99,0,5.55-2.24,5.55-6.09C331.06,239.57,328.49,237.3,325.51,237.3z"></path>		<path class="st0" d="M337.96,230.7c0-1.04,0.81-1.85,1.85-1.85c0.99,0,1.79,0.81,1.79,1.85s-0.81,1.85-1.79,1.85   C338.76,232.55,337.96,231.75,337.96,230.7z M338.41,235.21h2.72v16.36h-2.72V235.21z"></path>		<path class="st0" d="M348.47,251.58h-2.72v-16.36h2.72v2.66c0.93-1.82,2.69-2.96,5.29-2.96v2.81h-0.72c-2.6,0-4.57,1.16-4.57,4.96   V251.58z"></path>		<path class="st0" d="M365.73,234.94c4.39,0,7.76,3.29,7.76,8.39c0,5.08-3.37,8.51-7.76,8.51c-2.99,0-5.11-1.61-6.12-3.28v10.78   h-2.72v-24.13h2.72v3.02C360.59,236.5,362.74,234.94,365.73,234.94z M365.16,237.3c-2.96,0-5.55,2.27-5.55,6.06   c0,3.85,2.6,6.09,5.55,6.09c3.02,0,5.55-2.27,5.55-6.12C370.72,239.48,368.18,237.3,365.16,237.3z"></path>		<path class="st0" d="M384.22,251.84c-4.63,0-8.15-3.28-8.15-8.48c0-5.17,3.64-8.42,8.27-8.42c4.66,0,8.27,3.25,8.27,8.42   C392.61,248.56,388.87,251.84,384.22,251.84z M384.22,249.46c2.84,0,5.61-1.94,5.61-6.09c0-4.12-2.72-6.06-5.52-6.06   c-2.87,0-5.46,1.94-5.46,6.06C378.84,247.51,381.38,249.46,384.22,249.46z"></path>		<path class="st0" d="M398.91,251.58h-2.72v-16.36h2.72v2.66c0.93-1.82,2.69-2.96,5.29-2.96v2.81h-0.72c-2.6,0-4.57,1.16-4.57,4.96   V251.58z"></path>		<path class="st0" d="M407.93,237.45h-2.12v-2.24h2.12v-4.12h2.72v4.12h4.27v2.24h-4.27v9.64c0,1.61,0.6,2.18,2.27,2.18h2v2.3   h-2.45c-2.9,0-4.54-1.19-4.54-4.48V237.45z"></path>		<path class="st0" d="M426.77,237.45h-2.12v-2.24h2.12v-4.12h2.72v4.12h4.27v2.24h-4.27v9.64c0,1.61,0.6,2.18,2.27,2.18h2v2.3   h-2.45c-2.9,0-4.54-1.19-4.54-4.48V237.45z"></path>		<path class="st0" d="M444.18,251.84c-4.63,0-8.15-3.28-8.15-8.48c0-5.17,3.64-8.42,8.27-8.42c4.66,0,8.27,3.25,8.27,8.42   C452.57,248.56,448.84,251.84,444.18,251.84z M444.18,249.46c2.84,0,5.61-1.94,5.61-6.09c0-4.12-2.72-6.06-5.52-6.06   c-2.87,0-5.46,1.94-5.46,6.06C438.81,247.51,441.34,249.46,444.18,249.46z"></path>		<path class="st0" d="M475.42,235.21h2.81l-9.85,24.07h-2.81l3.23-7.88l-6.6-16.19h3.02l5.14,13.26L475.42,235.21z"></path>		<path class="st0" d="M488.08,251.84c-4.63,0-8.15-3.28-8.15-8.48c0-5.17,3.64-8.42,8.27-8.42c4.66,0,8.27,3.25,8.27,8.42   C496.47,248.56,492.74,251.84,488.08,251.84z M488.08,249.46c2.84,0,5.61-1.94,5.61-6.09c0-4.12-2.72-6.06-5.52-6.06   c-2.87,0-5.46,1.94-5.46,6.06C482.7,247.51,485.24,249.46,488.08,249.46z"></path>		<path class="st0" d="M514.57,251.58h-2.72v-2.42c-1.04,1.7-3.05,2.66-5.23,2.66c-3.76,0-6.72-2.33-6.72-7.02v-9.59h2.69v9.23   c0,3.31,1.82,5.02,4.57,5.02c2.81,0,4.69-1.73,4.69-5.26v-8.99h2.72V251.58z"></path>	</g>	<g>		<path class="st0" d="M116.85,238.96c-1.38,0-2.7-0.19-3.67-1.33c-0.14-0.17-0.26-0.35-0.45-0.61c6.7,0,9.11,0,15.77,0v1.93   c-0.03,0-0.09,0-0.12,0C123.13,238.96,122.11,238.96,116.85,238.96z"></path>		<path class="st0" d="M128.29,241.94c0.1,0,0.12,0,0.22,0v-1.92c-5.41,0-5.76,0-11.21,0c0.64,1.03,1.46,1.61,2.53,1.78   c0.61,0.1,1.23,0.14,1.84,0.14C125.53,241.96,124.43,241.95,128.29,241.94z"></path>		<path class="st0" d="M128.29,244.93c0.1,0,0.12,0,0.22,0v-1.92c-5.41,0-0.93,0-6.38,0c0.64,1.03,1.46,1.61,2.53,1.78   c0.61,0.1,1.23,0.14,1.84,0.14C130.35,244.95,124.43,244.94,128.29,244.93z"></path>	</g>	<g>		<path class="st0" d="M189.43,206.2l-1.32,3.73c-0.46,1.3,0.22,2.72,1.51,3.18l3.22,1.14c1.3,0.46,2.72-0.22,3.18-1.51l2.52-7.1   L189.43,206.2z"></path>		<path class="st0" d="M153.57,193.48l-1.32,3.73c-0.46,1.3-1.88,1.97-3.18,1.51l-3.22-1.14c-1.3-0.46-1.97-1.88-1.51-3.18l2.52-7.1   L153.57,193.48z"></path>	</g>	<g>		<path class="st0" d="M216.42,111.82l0.29-0.83l-26.03-9.24c-2.39-0.85-3.64-3.47-2.79-5.87l13.42-37.81   c0.85-2.39,3.47-3.64,5.87-2.79l26.03,9.24c2.39,0.85,3.64,3.47,2.79,5.87l-13.42,37.81c-0.85,2.39-3.47,3.64-5.87,2.79   L216.42,111.82l-0.29,0.83c3.31,1.17,6.94-0.56,8.11-3.86l13.42-37.81c1.17-3.31-0.56-6.94-3.86-8.11l-26.03-9.24   c-3.31-1.17-6.94,0.56-8.11,3.86L186.24,95.3c-1.17,3.31,0.55,6.94,3.86,8.11l26.03,9.24L216.42,111.82z"></path>		<path class="st0" d="M198.69,70.7l4.27-12.03c0.53-1.48,2.15-2.25,3.62-1.73l26.03,9.24c1.48,0.53,2.25,2.15,1.73,3.62   l-4.27,12.03c-0.49,1.37,0.23,2.88,1.6,3.36c1.37,0.49,2.88-0.23,3.36-1.6l4.27-12.03c1.5-4.22-0.71-8.85-4.93-10.35l-26.03-9.24   c-4.22-1.5-8.85,0.71-10.35,4.93l-4.27,12.03c-0.49,1.37,0.23,2.88,1.6,3.36C196.7,72.79,198.21,72.07,198.69,70.7L198.69,70.7z"></path>	</g>	<path class="st0" d="M531.15,7.4c2.62-3.72,7.55,0.97,4.37,4.05c3.07,1.21,5.23,2.16,5.23,2.16c19.09-24.52,31.51-12.2,7.88,7.62  c0,0,1.13,2.24,2.54,5.39c1.25-1.26,3.34-1.29,4.48,0.14l0,0c1.78,2.13-0.3,4.31-2.1,5.48c2.94,8.2,5.24,12.65,0.15,16.51  c-4.82,2.94-9.11-14.95-14.63-17.74l-11.58,9.88l1.33,10.93c0.29,1.25-1.71,2.19-2.42,2.88c-2.74,2.47-6.09-9.29-7.24-10.29  c-1.1-1.41-13.11-3.93-10.87-6.99c0.68-0.72,1.49-2.78,2.77-2.54l10.98,0.86l9.37-12c-3.06-5.42-21.05-8.86-18.37-13.84  c3.66-5.33,8.43-3.1,16.86-0.51L531.15,7.4z"></path>	<path class="st0" d="M192.81,73.99c-2.65,0-4.8,2.15-4.8,4.8c0,2.65,2.15,4.8,4.8,4.8c2.65,0,4.8-2.15,4.8-4.8  C197.61,76.14,195.47,73.99,192.81,73.99z M192.81,81.83c-1.68,0-3.04-1.36-3.05-3.05c0-1.68,1.36-3.04,3.05-3.05  c1.68,0,3.04,1.36,3.05,3.05C195.86,80.47,194.49,81.83,192.81,81.83z"></path>	<path class="st0" d="M195.4,74.74l-0.61,1.72c-0.44-0.39-1-0.63-1.62-0.69l0.6-1.7C194.36,74.2,194.91,74.43,195.4,74.74z"></path>	<path class="st0" d="M320.19,154.81l1.65-1.72c7.04-7.04,10.55-15.48,10.55-25.34c0-9.91-3.52-18.38-10.55-25.41  c-6.99-7.04-15.43-10.55-25.34-10.55h-9.33c-7.71,0-14.31,2.75-19.81,8.25c-5.46,5.45-8.18,12.04-8.18,19.74v75.45  c0,2.44,0.86,4.47,2.58,6.1c1.63,1.72,3.66,2.58,6.1,2.58H268c2.39,0,4.45-0.86,6.17-2.58c1.67-1.68,2.51-3.71,2.51-6.1v-31.59  h21.18c4.5,0.24,8.37,2.01,11.63,5.31c3.59,3.59,5.38,7.92,5.38,12.99v13.28c0,2.44,0.86,4.47,2.58,6.1  c1.72,1.72,3.76,2.58,6.1,2.58h0.14c2.34,0,4.38-0.86,6.1-2.58c1.72-1.63,2.58-3.66,2.58-6.1v-13.28c0-9.91-3.49-18.35-10.48-25.34  L320.19,154.81z M309.49,140.74c-3.59,3.54-7.92,5.31-12.99,5.31h-19.81v-25.63c0-1.15,0.05-1.99,0.14-2.51  c0.43-2.15,1.44-4.02,3.01-5.6c2.01-1.96,4.81-2.94,8.4-2.94h8.26c5.07,0,9.4,1.77,12.99,5.31c3.59,3.59,5.38,7.94,5.38,13.06  C314.88,132.82,313.08,137.15,309.49,140.74z M232.57,111.31c-10.04-11.75-22.79-18.23-38.24-19.44  c-15.45-1.21-29.05,3.21-40.8,13.25c-11.75,10.04-18.23,22.79-19.44,38.24c-1.21,15.45,3.2,29.05,13.25,40.81  c10.04,11.75,22.81,18.25,38.29,19.5c15.45,1.21,29.05-3.2,40.8-13.25c11.75-10.04,18.23-22.79,19.44-38.24  C247.05,136.68,242.62,123.06,232.57,111.31z M228.41,150.75c-0.83,10.59-5.3,19.36-13.42,26.29c-8.11,6.93-17.47,9.99-28.06,9.16  c-10.56-0.86-19.3-5.35-26.24-13.46c-6.9-8.08-9.96-17.4-9.16-27.96c0.83-10.59,5.3-19.36,13.42-26.29  c8.11-6.93,17.47-9.99,28.06-9.16c10.59,0.83,19.34,5.28,26.25,13.36C226.19,130.8,229.24,140.16,228.41,150.75z M409.02,102.62  c-7.28-7.23-16.03-10.84-26.27-10.84c-10.19,0-18.93,3.61-26.2,10.84c-7.28,7.28-10.91,16.03-10.91,26.27v66.33  c0,2.44,0.86,4.47,2.58,6.1c1.72,1.72,3.76,2.58,6.1,2.58h0.22c2.34,0,4.38-0.86,6.1-2.58c1.72-1.63,2.58-3.66,2.58-6.1v-32.02  h39.12v32.02c0,2.44,0.86,4.47,2.58,6.1c1.72,1.72,3.76,2.58,6.1,2.58h0.22c2.34,0,4.38-0.86,6.1-2.58  c1.72-1.63,2.58-3.66,2.58-6.1v-66.33C419.93,118.65,416.29,109.9,409.02,102.62z M402.34,145.69h-39.12v-16.8  c0-5.41,1.89-10.03,5.67-13.85c3.83-3.83,8.45-5.74,13.85-5.74c5.46,0,10.1,1.91,13.93,5.74c3.78,3.83,5.67,8.45,5.67,13.85V145.69  z M634.97,180.81c7.85-10.08,11.35-22.15,10.51-36.19c-0.78-14.25-6.19-26.4-16.24-36.45c-10.93-10.93-24.15-16.4-39.64-16.4  c-15.53,0.04-28.77,5.52-39.7,16.45c-10.93,10.93-16.4,24.15-16.4,39.64c0,15.5,5.46,28.71,16.4,39.64  c10.05,10.05,22.18,15.48,36.4,16.29c14.08,0.81,26.16-2.71,36.24-10.56l7.97,7.97c1.69,1.69,3.76,2.54,6.19,2.54  c2.37,0,4.4-0.84,6.09-2.54l0.1-0.1c1.69-1.69,2.55-3.74,2.59-6.14c0-2.44-0.85-4.5-2.54-6.19L634.97,180.81z M628.11,148.29  c0,0.13-0.01,0.24-0.01,0.37c-0.01,0.42-0.01,0.84-0.04,1.26c-0.2,7.15-2.08,13.26-5.68,18.3l-0.05-0.05  c-3.13,5.04-7.39,9.3-12.43,12.44l0.05,0.05c-4.83,3.46-10.65,5.32-17.44,5.63c-0.97,0.07-1.95,0.12-2.95,0.12  c-4.48,0-8.78-0.77-12.78-2.18c-0.13-0.05-0.27-0.09-0.4-0.14c-0.77-0.28-1.52-0.59-2.27-0.91c-0.4-0.17-0.79-0.35-1.18-0.53  c-0.67-0.32-1.33-0.66-1.97-1.02c-0.31-0.17-0.62-0.35-0.92-0.53c-4.54-2.67-8.48-6.24-11.58-10.47c-4.41-5.86-6.85-12.53-7.34-20  c-0.07-0.92-0.11-1.84-0.11-2.78c0-0.73,0.03-1.46,0.07-2.19c0.45-9.08,3.75-16.97,9.91-23.69c0.86-0.95,1.78-1.87,2.73-2.73  c7.26-6.64,15.87-9.96,25.83-9.96c0,0,0.01,0,0.01,0c0,0,0.01,0,0.01,0c0.06,0,0.12,0,0.18,0c8.63,0.04,16.24,2.58,22.83,7.62  c3.31,2.46,6.2,5.45,8.56,8.82c0.07,0.1,0.14,0.2,0.21,0.3c0.48,0.7,0.94,1.41,1.37,2.15c0.23,0.39,0.46,0.78,0.67,1.17  c0.26,0.47,0.5,0.95,0.74,1.43c0.29,0.58,0.56,1.16,0.81,1.76c0.22,0.51,0.43,1.04,0.64,1.57c0.15,0.41,0.31,0.82,0.45,1.24  c1.34,3.92,2.09,8.13,2.09,12.51C628.12,148,628.11,148.14,628.11,148.29z M517.82,118.11c1.72,1.72,2.58,3.78,2.58,6.17v70.94  c0,2.44-0.86,4.47-2.58,6.1c-1.72,1.72-3.76,2.58-6.1,2.58h-0.22c-2.35,0-4.38-0.86-6.1-2.58c-1.72-1.63-2.58-3.66-2.58-6.1v-70.94  c0-2.39,0.86-4.45,2.58-6.17c1.72-1.67,3.76-2.51,6.1-2.51h0.22C514.07,115.6,516.1,116.44,517.82,118.11z M110.41,101.9  c6.75,6.75,10.12,14.89,10.12,24.41v68.92c0,2.39-0.84,4.43-2.51,6.1c-1.72,1.72-3.78,2.58-6.17,2.58h-0.14  c-2.44,0-4.47-0.86-6.1-2.58c-1.72-1.63-2.58-3.66-2.58-6.1v-68.92c0-4.74-1.65-8.76-4.95-12.06c-3.3-3.3-7.32-4.95-12.06-4.95  c-4.69,0-8.69,1.65-11.99,4.95c-3.3,3.3-4.95,7.32-4.95,12.06v68.92c0,2.44-0.86,4.47-2.58,6.1c-1.63,1.72-3.66,2.58-6.1,2.58  h-0.14c-2.39,0-4.45-0.86-6.17-2.58c-1.72-1.63-2.58-3.66-2.58-6.1v-68.92c0-4.74-1.65-8.76-4.95-12.06  c-3.3-3.3-7.3-4.95-11.99-4.95c-4.69,0-8.69,1.65-11.99,4.95c-3.3,3.3-4.95,7.32-4.95,12.06v68.92c0,2.44-0.86,4.47-2.58,6.1  c-1.72,1.72-3.76,2.58-6.1,2.58H8.69c-2.35,0-4.38-0.86-6.1-2.58C0.86,199.7,0,197.67,0,195.23v-68.92  c0-9.52,3.37-17.66,10.12-24.41c6.75-6.75,14.88-10.12,24.41-10.12c11.39,0,19.98,3.78,25.77,11.34  c5.74-7.56,14.31-11.34,25.7-11.34C95.52,91.78,103.66,95.15,110.41,101.9z M487.67,94.29c1.72,1.72,2.58,3.78,2.58,6.17v0.14  c0,2.39-0.86,4.45-2.58,6.17c-1.72,1.68-3.76,2.51-6.1,2.51h-22.04c-2.39,0-4.43,0.84-6.1,2.51c-1.68,1.68-2.51,3.73-2.51,6.17  v21.11h29.94c2.34,0,4.38,0.84,6.1,2.51c1.72,1.72,2.58,3.78,2.58,6.17v0.14c0,2.44-0.86,4.48-2.58,6.1  c-1.72,1.72-3.76,2.58-6.1,2.58h-29.94v38.62c0,2.44-0.86,4.47-2.58,6.1c-1.72,1.72-3.76,2.58-6.1,2.58h-0.22  c-2.35,0-4.38-0.86-6.1-2.58c-1.72-1.63-2.58-3.66-2.58-6.1v-77.24c0-7.23,2.56-13.4,7.68-18.52c5.12-5.12,11.29-7.68,18.52-7.68  h22.04C483.91,91.78,485.95,92.62,487.67,94.29z"></path>	<g>		<path class="st0" d="M190.77,75.27c0.07-8.09,1.41-16.17,3.79-23.94c2.37-7.78,5.98-15.24,10.96-21.81   c2.47-3.3,5.42-6.22,8.59-8.86c3.16-2.67,6.7-4.87,10.41-6.7c3.68-1.92,7.65-3.16,11.63-4.3c4.02-0.93,8.1-1.67,12.22-1.94   c4.07-0.4,8.36-0.36,12.49,0.3c4.14,0.65,8.16,1.83,12.03,3.28c7.76,2.93,14.92,6.98,21.85,11.25   c13.8,8.66,26.71,18.37,40.31,26.92c13.51,8.65,27.68,16.26,42.8,21.35c15.06,5.22,31.04,7.52,46.98,6.96   c15.97-0.52,31.77-4.14,46.87-9.57c7.57-2.68,15.01-5.79,22.25-9.33c7.24-3.54,14.34-7.38,21.34-11.43   c-13.48,8.91-27.75,16.74-42.84,22.76c-15.12,5.89-31.1,9.98-47.46,10.92c-16.34,1.07-32.89-1.28-48.44-6.4   c-15.59-5.12-30.11-12.89-43.83-21.59c-13.71-8.73-26.66-18.48-40.16-27.11c-6.75-4.29-13.68-8.31-21.02-11.18   c-7.35-2.88-15.04-4.5-22.93-3.8c-3.96,0.16-7.86,0.77-11.73,1.56c-3.8,1-7.62,2.08-11.16,3.82c-7.18,3.25-13.49,8.3-18.53,14.41   c-5.04,6.12-8.88,13.27-11.53,20.84c-1.33,3.78-2.41,7.67-3.21,11.61C191.62,67.24,190.99,71.24,190.77,75.27z"></path>	</g>	<g>		<path class="st0" d="M511.64,91.78c-4.92,0-8.91,3.99-8.91,8.91c0,4.92,3.99,8.91,8.91,8.91s8.91-3.99,8.91-8.91   C520.55,95.77,516.56,91.78,511.64,91.78z M511.64,107.48c-3.6,0-6.52-2.92-6.52-6.52c0-3.6,2.92-6.52,6.52-6.52   s6.52,2.92,6.52,6.52C518.16,104.56,515.24,107.48,511.64,107.48z"></path>		<circle class="st0" cx="511.64" cy="100.96" r="4.29"></circle>	</g></g></svg>